{
    "asset" : {
        "generator" : "Khronos glTF Blender I/O v1.2.75",
        "version" : "2.0"
    },
    "scene" : 0,
    "scenes" : [
        {
            "name" : "Scene",
            "nodes" : [
                0,
                1,
                2
            ]
        }
    ],
    "nodes" : [
        {
            "name" : "splash",
            "rotation" : [
                -0.007733091711997986,
                0.707064688205719,
                0.707064688205719,
                0.007733091711997986
            ],
            "scale" : [
                0.14700919389724731,
                0.14700919389724731,
                0.14700919389724731
            ],
            "translation" : [
                0.27684569358825684,
                0.5038650035858154,
                -2.379082441329956
            ]
        },
        {
            "mesh" : 0,
            "name" : "splash_SPLASH_0",
            "rotation" : [
                -0.007857520133256912,
                0.6955016255378723,
                0.7184416055679321,
                0.007606633007526398
            ],
            "scale" : [
                0.14700919389724731,
                0.14700919389724731,
                0.14700919389724731
            ],
            "translation" : [
                0.01639137603342533,
                0.3493354916572571,
                -0.10589410364627838
            ]
        },
        {
            "mesh" : 1,
            "name" : "fireball_low_FIREBALL_0",
            "rotation" : [
                -0.007857520133256912,
                0.6955016255378723,
                0.7184416055679321,
                0.007606633007526398
            ],
            "scale" : [
                0.14700919389724731,
                0.14700919389724731,
                0.14700919389724731
            ],
            "translation" : [
                -0.0937255471944809,
                0.3034866750240326,
                -0.302871435880661
            ]
        }
    ],
    "materials" : [
        {
            "doubleSided" : true,
            "emissiveFactor" : [
                1,
                0.5160211324691772,
                0
            ],
            "name" : "SPLASH",
            "pbrMetallicRoughness" : {
                "baseColorFactor" : [
                    1,
                    0.047058798372745514,
                    0,
                    1
                ],
                "metallicFactor" : 0.4468368887901306,
                "roughnessFactor" : 0.19073933362960815
            }
        },
        {
            "doubleSided" : true,
            "emissiveFactor" : [
                1,
                1,
                1
            ],
            "emissiveTexture" : {
                "index" : 0,
                "texCoord" : 0
            },
            "name" : "FIREBALL",
            "normalTexture" : {
                "index" : 1,
                "texCoord" : 0
            },
            "occlusionTexture" : {
                "index" : 2,
                "texCoord" : 0
            },
            "pbrMetallicRoughness" : {
                "baseColorTexture" : {
                    "index" : 3,
                    "texCoord" : 0
                },
                "metallicRoughnessTexture" : {
                    "index" : 2,
                    "texCoord" : 0
                }
            }
        }
    ],
    "meshes" : [
        {
            "name" : "splash_SPLASH_0",
            "primitives" : [
                {
                    "attributes" : {
                        "POSITION" : 0,
                        "NORMAL" : 1
                    },
                    "indices" : 2,
                    "material" : 0
                }
            ]
        },
        {
            "name" : "fireball_low_FIREBALL_0",
            "primitives" : [
                {
                    "attributes" : {
                        "POSITION" : 3,
                        "NORMAL" : 4,
                        "TEXCOORD_0" : 5
                    },
                    "indices" : 6,
                    "material" : 1
                }
            ]
        }
    ],
    "textures" : [
        {
            "source" : 0
        },
        {
            "source" : 1
        },
        {
            "source" : 2
        },
        {
            "source" : 3
        }
    ],
    "images" : [
        {
            "mimeType" : "image/png",
            "name" : "FIREBALL_emissive",
            "uri" : "FIREBALL_emissive.png"
        },
        {
            "mimeType" : "image/png",
            "name" : "FIREBALL_normal",
            "uri" : "FIREBALL_normal.png"
        },
        {
            "mimeType" : "image/png",
            "name" : "FIREBALL_metallicRoughness",
            "uri" : "FIREBALL_metallicRoughness.png"
        },
        {
            "mimeType" : "image/png",
            "name" : "FIREBALL_baseColor",
            "uri" : "FIREBALL_baseColor.png"
        }
    ],
    "accessors" : [
        {
            "bufferView" : 0,
            "componentType" : 5126,
            "count" : 35462,
            "max" : [
                6.133868217468262,
                6.071933269500732,
                7.464502334594727
            ],
            "min" : [
                -5.867281913757324,
                -9.588706970214844,
                -6.920440673828125
            ],
            "type" : "VEC3"
        },
        {
            "bufferView" : 1,
            "componentType" : 5126,
            "count" : 35462,
            "type" : "VEC3"
        },
        {
            "bufferView" : 2,
            "componentType" : 5123,
            "count" : 211557,
            "type" : "SCALAR"
        },
        {
            "bufferView" : 3,
            "componentType" : 5126,
            "count" : 74,
            "max" : [
                7.010286808013916,
                7.010286331176758,
                7.010313034057617
            ],
            "min" : [
                -7.010313510894775,
                -7.010317325592041,
                -7.010287284851074
            ],
            "type" : "VEC3"
        },
        {
            "bufferView" : 4,
            "componentType" : 5126,
            "count" : 74,
            "type" : "VEC3"
        },
        {
            "bufferView" : 5,
            "componentType" : 5126,
            "count" : 74,
            "type" : "VEC2"
        },
        {
            "bufferView" : 6,
            "componentType" : 5123,
            "count" : 360,
            "type" : "SCALAR"
        }
    ],
    "bufferViews" : [
        {
            "buffer" : 0,
            "byteLength" : 425544,
            "byteOffset" : 0
        },
        {
            "buffer" : 0,
            "byteLength" : 425544,
            "byteOffset" : 425544
        },
        {
            "buffer" : 0,
            "byteLength" : 423114,
            "byteOffset" : 851088
        },
        {
            "buffer" : 0,
            "byteLength" : 888,
            "byteOffset" : 1274204
        },
        {
            "buffer" : 0,
            "byteLength" : 888,
            "byteOffset" : 1275092
        },
        {
            "buffer" : 0,
            "byteLength" : 592,
            "byteOffset" : 1275980
        },
        {
            "buffer" : 0,
            "byteLength" : 720,
            "byteOffset" : 1276572
        }
    ],
    "buffers" : [
        {
            "byteLength" : 1277292,
            "uri" : "fire_ball.bin"
        }
    ]
}
