{
    "asset" : {
        "generator" : "Khronos glTF Blender I/O v1.2.75",
        "version" : "2.0"
    },
    "scene" : 0,
    "scenes" : [
        {
            "name" : "Scene",
            "nodes" : [
                0,
                1,
                2
            ]
        }
    ],
    "nodes" : [
        {
            "name" : "splash",
            "rotation" : [
                -0.007733091711997986,
                0.707064688205719,
                0.707064688205719,
                0.007733091711997986
            ],
            "scale" : [
                0.14700919389724731,
                0.14700919389724731,
                0.14700919389724731
            ],
            "translation" : [
                -1.437638759613037,
                1.1722571849822998,
                -7.7517008781433105
            ]
        },
        {
            "mesh" : 0,
            "name" : "splash_SPLASH_0",
            "rotation" : [
                -0.007857520133256912,
                0.6955016255378723,
                0.7184416055679321,
                0.007606633007526398
            ],
            "scale" : [
                0.14700919389724731,
                0.14700919389724731,
                0.14700919389724731
            ],
            "translation" : [
                -2.629499912261963,
                0.6938968896865845,
                -15.9566068649292
            ]
        },
        {
            "mesh" : 1,
            "name" : "fireball_low_FIREBALL_0",
            "rotation" : [
                -0.007857520133256912,
                0.6955016255378723,
                0.7184416055679321,
                0.007606633007526398
            ],
            "scale" : [
                0.14700919389724731,
                0.14700919389724731,
                0.14700919389724731
            ],
            "translation" : [
                -2.629499912261963,
                0.6938968896865845,
                -15.9566068649292
            ]
        }
    ],
    "materials" : [
        {
            "doubleSided" : true,
            "emissiveFactor" : [
                1,
                0.5160211324691772,
                0
            ],
            "name" : "SPLASH",
            "pbrMetallicRoughness" : {
                "baseColorFactor" : [
                    1,
                    0.047058798372745514,
                    0,
                    1
                ],
                "metallicFactor" : 0.4468368887901306,
                "roughnessFactor" : 0.19073933362960815
            }
        },
        {
            "doubleSided" : true,
            "emissiveFactor" : [
                1,
                1,
                1
            ],
            "emissiveTexture" : {
                "index" : 0,
                "texCoord" : 0
            },
            "name" : "FIREBALL",
            "normalTexture" : {
                "index" : 1,
                "texCoord" : 0
            },
            "occlusionTexture" : {
                "index" : 2,
                "texCoord" : 0
            },
            "pbrMetallicRoughness" : {
                "baseColorTexture" : {
                    "index" : 3,
                    "texCoord" : 0
                },
                "metallicRoughnessTexture" : {
                    "index" : 2,
                    "texCoord" : 0
                }
            }
        }
    ],
    "meshes" : [
        {
            "name" : "splash_SPLASH_0",
            "primitives" : [
                {
                    "attributes" : {
                        "POSITION" : 0,
                        "NORMAL" : 1
                    },
                    "indices" : 2,
                    "material" : 0
                }
            ]
        },
        {
            "name" : "fireball_low_FIREBALL_0",
            "primitives" : [
                {
                    "attributes" : {
                        "POSITION" : 3,
                        "NORMAL" : 4,
                        "TEXCOORD_0" : 5
                    },
                    "indices" : 6,
                    "material" : 1
                }
            ]
        }
    ],
    "textures" : [
        {
            "source" : 0
        },
        {
            "source" : 1
        },
        {
            "source" : 2
        },
        {
            "source" : 3
        }
    ],
    "images" : [
        {
            "mimeType" : "image/png",
            "name" : "FIREBALL_emissive",
            "uri" : "FIREBALL_emissive.png"
        },
        {
            "mimeType" : "image/png",
            "name" : "FIREBALL_normal",
            "uri" : "FIREBALL_normal.png"
        },
        {
            "mimeType" : "image/png",
            "name" : "FIREBALL_metallicRoughness",
            "uri" : "FIREBALL_metallicRoughness.png"
        },
        {
            "mimeType" : "image/png",
            "name" : "FIREBALL_baseColor",
            "uri" : "FIREBALL_baseColor.png"
        }
    ],
    "accessors" : [
        {
            "bufferView" : 0,
            "componentType" : 5126,
            "count" : 35462,
            "max" : [
                -1.7591923475265503,
                77.08252716064453,
                11.973226547241211
            ],
            "min" : [
                -13.760342597961426,
                61.4218864440918,
                -2.4117159843444824
            ],
            "type" : "VEC3"
        },
        {
            "bufferView" : 1,
            "componentType" : 5126,
            "count" : 35462,
            "type" : "VEC3"
        },
        {
            "bufferView" : 2,
            "componentType" : 5123,
            "count" : 211557,
            "type" : "SCALAR"
        },
        {
            "bufferView" : 3,
            "componentType" : 5126,
            "count" : 74,
            "max" : [
                -0.10459999740123749,
                76.70850372314453,
                11.164400100708008
            ],
            "min" : [
                -14.125200271606445,
                62.68790054321289,
                -2.8561999797821045
            ],
            "type" : "VEC3"
        },
        {
            "bufferView" : 4,
            "componentType" : 5126,
            "count" : 74,
            "type" : "VEC3"
        },
        {
            "bufferView" : 5,
            "componentType" : 5126,
            "count" : 74,
            "type" : "VEC2"
        },
        {
            "bufferView" : 6,
            "componentType" : 5123,
            "count" : 360,
            "type" : "SCALAR"
        }
    ],
    "bufferViews" : [
        {
            "buffer" : 0,
            "byteLength" : 425544,
            "byteOffset" : 0
        },
        {
            "buffer" : 0,
            "byteLength" : 425544,
            "byteOffset" : 425544
        },
        {
            "buffer" : 0,
            "byteLength" : 423114,
            "byteOffset" : 851088
        },
        {
            "buffer" : 0,
            "byteLength" : 888,
            "byteOffset" : 1274204
        },
        {
            "buffer" : 0,
            "byteLength" : 888,
            "byteOffset" : 1275092
        },
        {
            "buffer" : 0,
            "byteLength" : 592,
            "byteOffset" : 1275980
        },
        {
            "buffer" : 0,
            "byteLength" : 720,
            "byteOffset" : 1276572
        }
    ],
    "buffers" : [
        {
            "byteLength" : 1277292,
            "uri" : "fire_ball.bin"
        }
    ]
}
