{
    "asset" : {
        "generator" : "Khronos glTF Blender I/O v1.2.75",
        "version" : "2.0"
    },
    "scene" : 0,
    "scenes" : [
        {
            "name" : "Scene",
            "nodes" : [
                0,
                1,
                2,
                3
            ]
        }
    ],
    "nodes" : [
        {
            "name" : "splash",
            "rotation" : [
                -0.007733091711997986,
                0.707064688205719,
                0.707064688205719,
                0.007733091711997986
            ],
            "scale" : [
                0.14700919389724731,
                0.14700919389724731,
                0.14700919389724731
            ],
            "translation" : [
                -1.437638759613037,
                1.1722571849822998,
                -7.7517008781433105
            ]
        },
        {
            "mesh" : 0,
            "name" : "splash_SPLASH_0",
            "rotation" : [
                -0.007857520133256912,
                0.6955016255378723,
                0.7184416055679321,
                0.007606633007526398
            ],
            "scale" : [
                0.14700919389724731,
                0.14700919389724731,
                0.14700919389724731
            ],
            "translation" : [
                -2.629499912261963,
                0.6938968896865845,
                -15.9566068649292
            ]
        },
        {
            "mesh" : 1,
            "name" : "splash_SPLASH_0.001",
            "rotation" : [
                -0.007857520133256912,
                0.6955016255378723,
                0.7184416055679321,
                0.007606633007526398
            ],
            "scale" : [
                0.14700919389724731,
                0.14700919389724731,
                0.14700919389724731
            ],
            "translation" : [
                -2.629499912261963,
                0.6938968896865845,
                -15.9566068649292
            ]
        },
        {
            "mesh" : 2,
            "name" : "fireball_low_FIREBALL_0",
            "rotation" : [
                -0.007857520133256912,
                0.6955016255378723,
                0.7184416055679321,
                0.007606633007526398
            ],
            "scale" : [
                0.14700919389724731,
                0.14700919389724731,
                0.14700919389724731
            ],
            "translation" : [
                -2.629499912261963,
                0.6938968896865845,
                -15.9566068649292
            ]
        }
    ],
    "materials" : [
        {
            "doubleSided" : true,
            "emissiveFactor" : [
                1,
                0.5160211324691772,
                0
            ],
            "name" : "SPLASH",
            "pbrMetallicRoughness" : {
                "baseColorFactor" : [
                    1,
                    0.047058798372745514,
                    0,
                    1
                ],
                "metallicFactor" : 0.4468368887901306,
                "roughnessFactor" : 0.19073933362960815
            }
        },
        {
            "doubleSided" : true,
            "emissiveFactor" : [
                1,
                1,
                1
            ],
            "emissiveTexture" : {
                "index" : 0,
                "texCoord" : 0
            },
            "name" : "FIREBALL",
            "normalTexture" : {
                "index" : 1,
                "texCoord" : 0
            },
            "occlusionTexture" : {
                "index" : 2,
                "texCoord" : 0
            },
            "pbrMetallicRoughness" : {
                "baseColorTexture" : {
                    "index" : 3,
                    "texCoord" : 0
                },
                "metallicRoughnessTexture" : {
                    "index" : 2,
                    "texCoord" : 0
                }
            }
        }
    ],
    "meshes" : [
        {
            "name" : "splash_SPLASH_0",
            "primitives" : [
                {
                    "attributes" : {
                        "POSITION" : 0,
                        "NORMAL" : 1
                    },
                    "indices" : 2,
                    "material" : 0
                }
            ]
        },
        {
            "name" : "splash_SPLASH_0.001",
            "primitives" : [
                {
                    "attributes" : {
                        "POSITION" : 3,
                        "NORMAL" : 4
                    },
                    "indices" : 5,
                    "material" : 0
                }
            ]
        },
        {
            "name" : "fireball_low_FIREBALL_0",
            "primitives" : [
                {
                    "attributes" : {
                        "POSITION" : 6,
                        "NORMAL" : 7,
                        "TEXCOORD_0" : 8
                    },
                    "indices" : 9,
                    "material" : 1
                }
            ]
        }
    ],
    "textures" : [
        {
            "source" : 0
        },
        {
            "source" : 1
        },
        {
            "source" : 2
        },
        {
            "source" : 3
        }
    ],
    "images" : [
        {
            "mimeType" : "image/png",
            "name" : "FIREBALL_emissive",
            "uri" : "FIREBALL_emissive.png"
        },
        {
            "mimeType" : "image/png",
            "name" : "FIREBALL_normal",
            "uri" : "FIREBALL_normal.png"
        },
        {
            "mimeType" : "image/png",
            "name" : "FIREBALL_metallicRoughness",
            "uri" : "FIREBALL_metallicRoughness.png"
        },
        {
            "mimeType" : "image/png",
            "name" : "FIREBALL_baseColor",
            "uri" : "FIREBALL_baseColor.png"
        }
    ],
    "accessors" : [
        {
            "bufferView" : 0,
            "componentType" : 5126,
            "count" : 65538,
            "max" : [
                -1.403692603111267,
                77.08252716064453,
                12.811668395996094
            ],
            "min" : [
                -14.443021774291992,
                34.1605339050293,
                -5.190695285797119
            ],
            "type" : "VEC3"
        },
        {
            "bufferView" : 1,
            "componentType" : 5126,
            "count" : 65538,
            "type" : "VEC3"
        },
        {
            "bufferView" : 2,
            "componentType" : 5125,
            "count" : 390864,
            "type" : "SCALAR"
        },
        {
            "bufferView" : 3,
            "componentType" : 5126,
            "count" : 61802,
            "max" : [
                1.1974958181381226,
                75.12107849121094,
                11.206036567687988
            ],
            "min" : [
                -19.84977149963379,
                34.922908782958984,
                -6.303772449493408
            ],
            "type" : "VEC3"
        },
        {
            "bufferView" : 4,
            "componentType" : 5126,
            "count" : 61802,
            "type" : "VEC3"
        },
        {
            "bufferView" : 5,
            "componentType" : 5123,
            "count" : 351696,
            "type" : "SCALAR"
        },
        {
            "bufferView" : 6,
            "componentType" : 5126,
            "count" : 74,
            "max" : [
                -0.10459999740123749,
                76.70850372314453,
                11.164400100708008
            ],
            "min" : [
                -14.125200271606445,
                62.68790054321289,
                -2.8561999797821045
            ],
            "type" : "VEC3"
        },
        {
            "bufferView" : 7,
            "componentType" : 5126,
            "count" : 74,
            "type" : "VEC3"
        },
        {
            "bufferView" : 8,
            "componentType" : 5126,
            "count" : 74,
            "type" : "VEC2"
        },
        {
            "bufferView" : 9,
            "componentType" : 5123,
            "count" : 360,
            "type" : "SCALAR"
        }
    ],
    "bufferViews" : [
        {
            "buffer" : 0,
            "byteLength" : 786456,
            "byteOffset" : 0
        },
        {
            "buffer" : 0,
            "byteLength" : 786456,
            "byteOffset" : 786456
        },
        {
            "buffer" : 0,
            "byteLength" : 1563456,
            "byteOffset" : 1572912
        },
        {
            "buffer" : 0,
            "byteLength" : 741624,
            "byteOffset" : 3136368
        },
        {
            "buffer" : 0,
            "byteLength" : 741624,
            "byteOffset" : 3877992
        },
        {
            "buffer" : 0,
            "byteLength" : 703392,
            "byteOffset" : 4619616
        },
        {
            "buffer" : 0,
            "byteLength" : 888,
            "byteOffset" : 5323008
        },
        {
            "buffer" : 0,
            "byteLength" : 888,
            "byteOffset" : 5323896
        },
        {
            "buffer" : 0,
            "byteLength" : 592,
            "byteOffset" : 5324784
        },
        {
            "buffer" : 0,
            "byteLength" : 720,
            "byteOffset" : 5325376
        }
    ],
    "buffers" : [
        {
            "byteLength" : 5326096,
            "uri" : "fire_ball.bin"
        }
    ]
}
