{
    "asset" : {
        "generator" : "Khronos glTF Blender I/O v1.2.75",
        "version" : "2.0"
    },
    "scene" : 0,
    "scenes" : [
        {
            "name" : "Scene",
            "nodes" : [
                0,
                1,
                2,
                3,
                4,
                5,
                6
            ]
        }
    ],
    "nodes" : [
        {
            "extras" : {
                "currentUVSet" : "map1"
            },
            "mesh" : 0,
            "name" : "polySurface28",
            "rotation" : [
                0.5094435811042786,
                -0.4905494451522827,
                0.5017750859260559,
                0.4980464279651642
            ],
            "scale" : [
                0.4425257444381714,
                0.4425257444381714,
                0.4425257444381714
            ],
            "translation" : [
                -0.021005645394325256,
                0.16409388184547424,
                -1.2128846645355225
            ]
        },
        {
            "extras" : {
                "currentUVSet" : "map1"
            },
            "mesh" : 1,
            "name" : "polySurface29",
            "rotation" : [
                0.5094435811042786,
                -0.4905494451522827,
                0.5017750859260559,
                0.4980464279651642
            ],
            "scale" : [
                0.4425257444381714,
                0.4425257444381714,
                0.4425257444381714
            ],
            "translation" : [
                -0.011526823043823242,
                0.09138671308755875,
                0.030020838603377342
            ]
        },
        {
            "extras" : {
                "currentUVSet" : "map1"
            },
            "mesh" : 2,
            "name" : "polySurface30",
            "rotation" : [
                0.5094435811042786,
                -0.4905494451522827,
                0.5017750859260559,
                0.4980464279651642
            ],
            "scale" : [
                0.4425257444381714,
                0.4425257444381714,
                0.4425257444381714
            ],
            "translation" : [
                0.0014836788177490234,
                0.027036048471927643,
                0.09444808214902878
            ]
        },
        {
            "extras" : {
                "currentUVSet" : "map1"
            },
            "mesh" : 3,
            "name" : "polySurface31",
            "rotation" : [
                0.5094435811042786,
                -0.4905494451522827,
                0.5017750859260559,
                0.4980464279651642
            ],
            "scale" : [
                0.4425257444381714,
                0.4425257444381714,
                0.4425257444381714
            ],
            "translation" : [
                0.01587750017642975,
                -0.3358352482318878,
                0.5769161581993103
            ]
        },
        {
            "extras" : {
                "currentUVSet" : "map1"
            },
            "mesh" : 4,
            "name" : "polySurface32",
            "rotation" : [
                0.5094435811042786,
                -0.4905494451522827,
                0.5017750859260559,
                0.4980464279651642
            ],
            "scale" : [
                0.4425257444381714,
                0.4425257444381714,
                0.4425257444381714
            ],
            "translation" : [
                0.00220373272895813,
                0.18166834115982056,
                0.37270671129226685
            ]
        },
        {
            "extras" : {
                "currentUVSet" : "map1"
            },
            "mesh" : 5,
            "name" : "polySurface33",
            "rotation" : [
                0.5094435811042786,
                -0.4905494451522827,
                0.5017750859260559,
                0.4980464279651642
            ],
            "scale" : [
                0.4425257444381714,
                0.4425257444381714,
                0.4425257444381714
            ],
            "translation" : [
                0.004040777683258057,
                -0.11519333720207214,
                0.14112749695777893
            ]
        },
        {
            "name" : "transform1"
        }
    ],
    "materials" : [
        {
            "doubleSided" : true,
            "emissiveFactor" : [
                0,
                0,
                0
            ],
            "name" : "metal",
            "pbrMetallicRoughness" : {
                "baseColorFactor" : [
                    0.1491522341966629,
                    0.1491522341966629,
                    0.1491522341966629,
                    1
                ],
                "metallicFactor" : 0,
                "roughnessFactor" : 0.5
            }
        },
        {
            "doubleSided" : true,
            "emissiveFactor" : [
                0,
                0,
                0
            ],
            "name" : "wood",
            "pbrMetallicRoughness" : {
                "baseColorFactor" : [
                    0.14125902950763702,
                    0.09108877182006836,
                    0.02484435960650444,
                    1
                ],
                "metallicFactor" : 0,
                "roughnessFactor" : 0.5
            }
        }
    ],
    "meshes" : [
        {
            "name" : "Mesh",
            "primitives" : [
                {
                    "attributes" : {
                        "POSITION" : 0,
                        "NORMAL" : 1,
                        "TEXCOORD_0" : 2
                    },
                    "indices" : 3,
                    "material" : 0
                }
            ]
        },
        {
            "name" : "Mesh.001",
            "primitives" : [
                {
                    "attributes" : {
                        "POSITION" : 4,
                        "NORMAL" : 5,
                        "TEXCOORD_0" : 6
                    },
                    "indices" : 7,
                    "material" : 0
                }
            ]
        },
        {
            "name" : "Mesh.002",
            "primitives" : [
                {
                    "attributes" : {
                        "POSITION" : 8,
                        "NORMAL" : 9,
                        "TEXCOORD_0" : 10
                    },
                    "indices" : 11,
                    "material" : 0
                }
            ]
        },
        {
            "name" : "Mesh.003",
            "primitives" : [
                {
                    "attributes" : {
                        "POSITION" : 12,
                        "NORMAL" : 13,
                        "TEXCOORD_0" : 14
                    },
                    "indices" : 15,
                    "material" : 1
                }
            ]
        },
        {
            "name" : "Mesh.004",
            "primitives" : [
                {
                    "attributes" : {
                        "POSITION" : 16,
                        "NORMAL" : 17,
                        "TEXCOORD_0" : 18
                    },
                    "indices" : 19,
                    "material" : 0
                }
            ]
        },
        {
            "name" : "Mesh.005",
            "primitives" : [
                {
                    "attributes" : {
                        "POSITION" : 20,
                        "NORMAL" : 21,
                        "TEXCOORD_0" : 22
                    },
                    "indices" : 23,
                    "material" : 0
                }
            ]
        }
    ],
    "accessors" : [
        {
            "bufferView" : 0,
            "componentType" : 5126,
            "count" : 35205,
            "max" : [
                2.1739611625671387,
                0.2577301859855652,
                0.272889107465744
            ],
            "min" : [
                -1.113834023475647,
                -0.24984046816825867,
                -0.3992333710193634
            ],
            "type" : "VEC3"
        },
        {
            "bufferView" : 1,
            "componentType" : 5126,
            "count" : 35205,
            "type" : "VEC3"
        },
        {
            "bufferView" : 2,
            "componentType" : 5126,
            "count" : 35205,
            "type" : "VEC2"
        },
        {
            "bufferView" : 3,
            "componentType" : 5123,
            "count" : 192738,
            "type" : "SCALAR"
        },
        {
            "bufferView" : 4,
            "componentType" : 5126,
            "count" : 2325,
            "max" : [
                0.6880599856376648,
                0.3716205954551697,
                0.304482638835907
            ],
            "min" : [
                -0.3762560486793518,
                -0.3686913847923279,
                -0.32986050844192505
            ],
            "type" : "VEC3"
        },
        {
            "bufferView" : 5,
            "componentType" : 5126,
            "count" : 2325,
            "type" : "VEC3"
        },
        {
            "bufferView" : 6,
            "componentType" : 5126,
            "count" : 2325,
            "type" : "VEC2"
        },
        {
            "bufferView" : 7,
            "componentType" : 5123,
            "count" : 8652,
            "type" : "SCALAR"
        },
        {
            "bufferView" : 8,
            "componentType" : 5126,
            "count" : 3528,
            "max" : [
                0.8063501715660095,
                0.1789303421974182,
                0.5537664890289307
            ],
            "min" : [
                -0.8051907420158386,
                -0.17379766702651978,
                -0.5325281620025635
            ],
            "type" : "VEC3"
        },
        {
            "bufferView" : 9,
            "componentType" : 5126,
            "count" : 3528,
            "type" : "VEC3"
        },
        {
            "bufferView" : 10,
            "componentType" : 5126,
            "count" : 3528,
            "type" : "VEC2"
        },
        {
            "bufferView" : 11,
            "componentType" : 5123,
            "count" : 16560,
            "type" : "SCALAR"
        },
        {
            "bufferView" : 12,
            "componentType" : 5126,
            "count" : 601,
            "max" : [
                0.26765525341033936,
                0.11180800944566727,
                0.38728857040405273
            ],
            "min" : [
                -0.3146935701370239,
                -0.11180799454450607,
                -0.6836032867431641
            ],
            "type" : "VEC3"
        },
        {
            "bufferView" : 13,
            "componentType" : 5126,
            "count" : 601,
            "type" : "VEC3"
        },
        {
            "bufferView" : 14,
            "componentType" : 5126,
            "count" : 601,
            "type" : "VEC2"
        },
        {
            "bufferView" : 15,
            "componentType" : 5123,
            "count" : 3264,
            "type" : "SCALAR"
        },
        {
            "bufferView" : 16,
            "componentType" : 5126,
            "count" : 497,
            "max" : [
                0.3747110962867737,
                0.052651941776275635,
                0.2108495682477951
            ],
            "min" : [
                -0.37238985300064087,
                -0.05813305824995041,
                -0.3099686801433563
            ],
            "type" : "VEC3"
        },
        {
            "bufferView" : 17,
            "componentType" : 5126,
            "count" : 497,
            "type" : "VEC3"
        },
        {
            "bufferView" : 18,
            "componentType" : 5126,
            "count" : 497,
            "type" : "VEC2"
        },
        {
            "bufferView" : 19,
            "componentType" : 5123,
            "count" : 2736,
            "type" : "SCALAR"
        },
        {
            "bufferView" : 20,
            "componentType" : 5126,
            "count" : 135,
            "max" : [
                0.07682745903730392,
                0.0363936647772789,
                0.08968209475278854
            ],
            "min" : [
                -0.10125953704118729,
                -0.03521633520722389,
                -0.1312870979309082
            ],
            "type" : "VEC3"
        },
        {
            "bufferView" : 21,
            "componentType" : 5126,
            "count" : 135,
            "type" : "VEC3"
        },
        {
            "bufferView" : 22,
            "componentType" : 5126,
            "count" : 135,
            "type" : "VEC2"
        },
        {
            "bufferView" : 23,
            "componentType" : 5123,
            "count" : 672,
            "type" : "SCALAR"
        }
    ],
    "bufferViews" : [
        {
            "buffer" : 0,
            "byteLength" : 422460,
            "byteOffset" : 0
        },
        {
            "buffer" : 0,
            "byteLength" : 422460,
            "byteOffset" : 422460
        },
        {
            "buffer" : 0,
            "byteLength" : 281640,
            "byteOffset" : 844920
        },
        {
            "buffer" : 0,
            "byteLength" : 385476,
            "byteOffset" : 1126560
        },
        {
            "buffer" : 0,
            "byteLength" : 27900,
            "byteOffset" : 1512036
        },
        {
            "buffer" : 0,
            "byteLength" : 27900,
            "byteOffset" : 1539936
        },
        {
            "buffer" : 0,
            "byteLength" : 18600,
            "byteOffset" : 1567836
        },
        {
            "buffer" : 0,
            "byteLength" : 17304,
            "byteOffset" : 1586436
        },
        {
            "buffer" : 0,
            "byteLength" : 42336,
            "byteOffset" : 1603740
        },
        {
            "buffer" : 0,
            "byteLength" : 42336,
            "byteOffset" : 1646076
        },
        {
            "buffer" : 0,
            "byteLength" : 28224,
            "byteOffset" : 1688412
        },
        {
            "buffer" : 0,
            "byteLength" : 33120,
            "byteOffset" : 1716636
        },
        {
            "buffer" : 0,
            "byteLength" : 7212,
            "byteOffset" : 1749756
        },
        {
            "buffer" : 0,
            "byteLength" : 7212,
            "byteOffset" : 1756968
        },
        {
            "buffer" : 0,
            "byteLength" : 4808,
            "byteOffset" : 1764180
        },
        {
            "buffer" : 0,
            "byteLength" : 6528,
            "byteOffset" : 1768988
        },
        {
            "buffer" : 0,
            "byteLength" : 5964,
            "byteOffset" : 1775516
        },
        {
            "buffer" : 0,
            "byteLength" : 5964,
            "byteOffset" : 1781480
        },
        {
            "buffer" : 0,
            "byteLength" : 3976,
            "byteOffset" : 1787444
        },
        {
            "buffer" : 0,
            "byteLength" : 5472,
            "byteOffset" : 1791420
        },
        {
            "buffer" : 0,
            "byteLength" : 1620,
            "byteOffset" : 1796892
        },
        {
            "buffer" : 0,
            "byteLength" : 1620,
            "byteOffset" : 1798512
        },
        {
            "buffer" : 0,
            "byteLength" : 1080,
            "byteOffset" : 1800132
        },
        {
            "buffer" : 0,
            "byteLength" : 1344,
            "byteOffset" : 1801212
        }
    ],
    "buffers" : [
        {
            "byteLength" : 1802556,
            "uri" : "gun.bin"
        }
    ]
}
